# xmcd
#
# Track frame offsets:
# 150
# 15879
# 27003
# 41611
# 57839
# 73674
# 86878
# 98578
# 115108
# 127848
# 146133
# 161209
# 176622
# 193203
# 208297
# 231593
#
# Disc length: 3339 seconds
#
#
# Revision: 0
# Processed by: cddbd v1.5.1PL2 Copyright (c) Steve Scherf et al.
# Submitted via: FreeRIP 2.40 
#
DISCID=e10d0910
DTITLE=Ronny e Gil - Ronny e Gil
DYEAR=2005
DGENRE=Country
TTITLE0=RONNY E GIL - VOU FAZER UM REGASSO
TTITLE1=RONNY E GIL - FORA DO SÉRIO
TTITLE2=RONNY E GIL - EU SOU UM POETA APAIXONADO
TTITLE3=RONNY E GIL - CHOREI JUNTO COM A CHUVA
TTITLE4=RONNY E GIL - LOUCO APAIXONADO
TTITLE5=RONNY E GIL - TA AMARRADO
TTITLE6=RONNY E GIL - NÃO ADIANTA
TTITLE7=RONNY E GIL - CHEIRO DE JASMIM
TTITLE8=RONNY E GIL - MENINA
TTITLE9=RONNY E GIL - NEM QUE A JIRIPOCA PIA
TTITLE10=RONNY E GIL - PRA TE ESQUECER
TTITLE11=RONNY E GIL - ESFREGA ESFREGA
TTITLE12=RONNY E GIL - EM BUSCA DE EMOÇÃO
TTITLE13=RONNY E GIL - CHEGA
TTITLE14=RONNY E GIL - LOUCO POR VOCÊ
TTITLE15=RONNY E GIL - PAINEIRA AMIGA
EXTD=
EXTT0=
EXTT1=
EXTT2=
EXTT3=
EXTT4=
EXTT5=
EXTT6=
EXTT7=
EXTT8=
EXTT9=
EXTT10=
EXTT11=
EXTT12=
EXTT13=
EXTT14=
EXTT15=
PLAYORDER=
